<?xml version="1.0" standalone="no"?>
<!DOCTYPE svg PUBLIC "-//W3C//DTD SVG 20010904//EN"
 "http://www.w3.org/TR/2001/REC-SVG-20010904/DTD/svg10.dtd">
<svg version="1.0" xmlns="http://www.w3.org/2000/svg"
 width="250.000000pt" height="250.000000pt" viewBox="0 0 250.000000 250.000000"
 preserveAspectRatio="xMidYMid meet">

<g transform="translate(0.000000,250.000000) scale(0.100000,-0.100000)"
fill="#ff0000" stroke="none">
<path d="M1095 2489 c-719 -99 -1211 -779 -1069 -1479 51 -249 165 -461 344
-640 197 -198 433 -315 715 -355 126 -18 204 -18 330 0 426 61 785 324 964
706 71 151 121 369 121 529 0 36 -7 110 -15 165 -40 282 -157 518 -355 715
-180 180 -390 293 -645 345 -98 20 -295 27 -390 14z m325 -114 c368 -55 686
-288 849 -620 59 -121 87 -209 106 -335 55 -356 -61 -711 -316 -970 -411 -418
-1080 -453 -1532 -79 -312 258 -463 652 -402 1049 19 126 47 214 106 335 217
443 700 695 1189 620z"/>
<path d="M1095 2031 c-318 -91 -497 -428 -394 -736 16 -47 110 -215 284 -507
143 -241 262 -437 265 -437 3 0 122 196 265 437 174 292 268 460 284 507 105
313 -83 656 -405 739 -81 21 -222 20 -299 -3z m270 -339 c123 -63 172 -219
107 -343 -122 -234 -472 -147 -472 118 0 116 67 207 180 244 41 14 142 3 185
-19z"/>
</g>
</svg>
